Started on 2012-09-25 01:50:36 - 2012 Sep 25

Checking File ....
File : /home/wwwroot/files/conversion_queue/13484329759c8ae.flv
File Exists : Yes
raw_output_for_stat : ffmpeg version 0.8.3-4:0.8.3-0ubuntu0.12.04.1, Copyright (c) 2000-2012 the Libav developers
  built on Jun 12 2012 16:37:58 with gcc 4.6.3
*** THIS PROGRAM IS DEPRECATED ***
This program is only provided for compatibility and will be removed in a future release. Please use avconv instead.
[flv @ 0x8e6d240] Estimating duration from bitrate, this may be inaccurate
Input #0, flv, from '/home/wwwroot/files/conversion_queue/13484329759c8ae.flv':
  Metadata:
    metadatacreator : modified by youku.com in 20111202
    hasKeyframes    : true
    hasVideo        : true
    hasAudio        : true
    hasMetadata     : true
  Duration: 00:02:29.07, start: 0.000000, bitrate: N/A
    Stream #0.0: Video: h264 (High), yuv420p, 512x288 [PAR 513:512 DAR 57:32], 15 tbr, 1k tbn, 30 tbc
    Stream #0.1: Audio: aac, 44100 Hz, stereo, s16
Output #0, null, to '/dev/null':
  Metadata:
    metadatacreator : modified by youku.com in 20111202
    hasKeyframes    : true
    hasVideo        : true
    hasAudio        : true
    hasMetadata     : true
    encoder         : Lavf53.21.0
    Stream #0.0: Video: libx264, yuv420p, 512x288 [PAR 513:512 DAR 57:32], q=2-31, 90k tbn, 15 tbc
    Stream #0.1: Audio: libvo_aacenc, 44100 Hz, stereo
Stream mapping:
  Stream #0.0 -> #0.0
  Stream #0.1 -> #0.1
Press ctrl-c to stop encoding
frame= 2234 fps=  0 q=-1.0 Lsize=      -0kB time=148.93 bitrate=  -0.0kbits/s    
video:4534kB audio:586kB global headers:0kB muxing overhead -100.000420%


Preparing file...
format : flv
duration : 149.07
size : 5343337
bitrate : 280
video_width : 512
video_height : 288
video_wh_ratio : 1.77777777778
video_codec : h264
video_rate : 14.9862480714
video_bitrate : 243
video_color : N/A
audio_codec : aac
audio_bitrate : 31
audio_rate : 44100
audio_channels : stereo
path : /home/wwwroot/files/conversion_queue/13484329759c8ae.flv

Converting Video
Conversion Command : /usr/bin/ffmpeg -i /home/wwwroot/files/conversion_queue/13484329759c8ae.flv  -f flv  -vcodec libx264 -r 25  -ab 128000  -ar 22050  /home/wwwroot/files/videos/13484329759c8ae.flv  2> /home/wwwroot/files/temp/134850903724937.tmp


Conversion Details

Flv Quick Conv;raw_output_for_stat : ffmpeg version 0.8.3-4:0.8.3-0ubuntu0.12.04.1, Copyright (c) 2000-2012 the Libav developers
  built on Jun 12 2012 16:37:58 with gcc 4.6.3
*** THIS PROGRAM IS DEPRECATED ***
This program is only provided for compatibility and will be removed in a future release. Please use avconv instead.
[flv @ 0x8f36240] Estimating duration from bitrate, this may be inaccurate
Input #0, flv, from '/home/wwwroot/files/videos/13484329759c8ae.flv':
  Metadata:
    metadatacreator : modified by youku.com in 20111202
    hasKeyframes    : true
    hasVideo        : true
    hasAudio        : true
    hasMetadata     : true
  Duration: 00:02:29.07, start: 0.000000, bitrate: N/A
    Stream #0.0: Video: h264 (High), yuv420p, 512x288 [PAR 513:512 DAR 57:32], 15 tbr, 1k tbn, 30 tbc
    Stream #0.1: Audio: aac, 44100 Hz, stereo, s16
Output #0, null, to '/dev/null':
  Metadata:
    metadatacreator : modified by youku.com in 20111202
    hasKeyframes    : true
    hasVideo        : true
    hasAudio        : true
    hasMetadata     : true
    encoder         : Lavf53.21.0
    Stream #0.0: Video: libx264, yuv420p, 512x288 [PAR 513:512 DAR 57:32], q=2-31, 90k tbn, 15 tbc
    Stream #0.1: Audio: libvo_aacenc, 44100 Hz, stereo
Stream mapping:
  Stream #0.0 -> #0.0
  Stream #0.1 -> #0.1
Press ctrl-c to stop encoding
frame= 2234 fps=  0 q=-1.0 Lsize=      -0kB time=148.93 bitrate=  -0.0kbits/s    
video:4534kB audio:586kB global headers:0kB muxing overhead -100.000420%

raw_output_for_stat : ffmpeg version 0.8.3-4:0.8.3-0ubuntu0.12.04.1, Copyright (c) 2000-2012 the Libav developers
  built on Jun 12 2012 16:37:58 with gcc 4.6.3
*** THIS PROGRAM IS DEPRECATED ***
This program is only provided for compatibility and will be removed in a future release. Please use avconv instead.
[flv @ 0x8498240] Estimating duration from bitrate, this may be inaccurate
Input #0, flv, from '/home/wwwroot/files/videos/13484329759c8ae.flv':
  Metadata:
    metadatacreator : modified by youku.com in 20111202
    hasKeyframes    : true
    hasVideo        : true
    hasAudio        : true
    hasMetadata     : true
  Duration: 00:02:29.07, start: 0.000000, bitrate: N/A
    Stream #0.0: Video: h264 (High), yuv420p, 512x288 [PAR 513:512 DAR 57:32], 15 tbr, 1k tbn, 30 tbc
    Stream #0.1: Audio: aac, 44100 Hz, stereo, s16
Output #0, null, to '/dev/null':
  Metadata:
    metadatacreator : modified by youku.com in 20111202
    hasKeyframes    : true
    hasVideo        : true
    hasAudio        : true
    hasMetadata     : true
    encoder         : Lavf53.21.0
    Stream #0.0: Video: libx264, yuv420p, 512x288 [PAR 513:512 DAR 57:32], q=2-31, 90k tbn, 15 tbc
    Stream #0.1: Audio: libvo_aacenc, 44100 Hz, stereo
Stream mapping:
  Stream #0.0 -> #0.0
  Stream #0.1 -> #0.1
Press ctrl-c to stop encoding
frame= 2234 fps=  0 q=-1.0 Lsize=      -0kB time=148.93 bitrate=  -0.0kbits/s    
video:4534kB audio:586kB global headers:0kB muxing overhead -100.000420%



output_format : flv
output_duration : 149.07
output_size : 5343337
output_bitrate : 280
output_video_width : 512
output_video_height : 288
output_video_wh_ratio : 1.77777777778
output_video_codec : h264
output_video_rate : 14.9862480714
output_video_bitrate : 243
output_video_color : N/A
output_audio_codec : aac
output_audio_bitrate : 31
output_audio_rate : 44100
output_audio_channels : stereo
output_path : /home/wwwroot/files/videos/13484329759c8ae.flv


Time Took : 1.6183 seconds

conversion_status : completed
